# xmcd
#
# Track frame offsets: 
#        150
#        17505
#        35665
#        53327
#        68955
#        86585
#        97775
#        112805
#        128192
#        144960
#        161275
#        177427
#        193822
#        206110
#        223977
#        242255
#        256330
#        273167
#        286855
#        305050
#        321885
#        338935
#
# Disc length: 4719 seconds
#
# Revision: 0
# Processed by: cddbd v1.5.1PL0 Copyright (c) Steve Scherf et al.
# Submitted via: ExactAudioCopy v0.95a3
#
DISCID=37126d16
DTITLE=Various Artist - Today's Most Requested Country Love Songs '91
DYEAR=1991
DGENRE=Country
TTITLE0=Dan Seals - Love On Arrival
TTITLE1=Lionel Cartwright - In My Eyes
TTITLE2=Dolly Parton - Yellow Roses
TTITLE3=Michael Martin Murphy - A Long Line Of Love
TTITLE4=Vince Gill - When I Call Your Name
TTITLE5=Ricky Van Shelton - I've Cried My Last Tear For You
TTITLE6=Don Williams - Just As Long As I Have You
TTITLE7=Paul Overstreet - Seein' My Father In Me
TTITLE8=Baillie And The Boys - Can't Turn The Tide
TTITLE9=Judds - Change Of Heart
TTITLE10=Alabama - If I Had You
TTITLE11=Alan Jackson - Here In The Real World
TTITLE12=Ricky Scaggs - Let It Be You
TTITLE13=Carroll Baker - As Long As We Both Shall Love
TTITLE14=Rita MacNeil - I'll Accept The Rose
TTITLE15=T. Graham Brown - If You Could Only See Me Now
TTITLE16=Shenandoah - Two Dozen Roses
TTITLE17=Ricky Van Shelton - I Meant Every Word He Said
TTITLE18=Vern Gosdin - That Just About Does It
TTITLE19=Reba McEntire - 'Til Love Comes Again
TTITLE20=Steve Wariner - When I Could Come Home To You
TTITLE21=Doug Stone - I'd Be Better Off (In A Pine Box)
EXTD=
EXTT0=
EXTT1=
EXTT2=
EXTT3=
EXTT4=
EXTT5=
EXTT6=
EXTT7=
EXTT8=
EXTT9=
EXTT10=
EXTT11=
EXTT12=
EXTT13=
EXTT14=
EXTT15=
EXTT16=
EXTT17=
EXTT18=
EXTT19=
EXTT20=
EXTT21=
PLAYORDER=
